<?xml version="1.0" encoding="UTF-8"?>
<svg id="Layer_1" xmlns="http://www.w3.org/2000/svg" version="1.1" xmlns:xlink="http://www.w3.org/1999/xlink" viewBox="400 800 2200 600">
  <!-- Generator: Adobe Illustrator 29.1.0, SVG Export Plug-In . SVG Version: 2.1.0 Build 142)  -->
  <defs>
    <linearGradient id="linear-gradient" x1="692.9" y1="733.5" x2="472.3" y2="1158.9" gradientUnits="userSpaceOnUse">
      <stop offset="0" stop-color="#29d8dd"/>
      <stop offset="1" stop-color="#5f7ae3"/>
    </linearGradient>
    <linearGradient id="linear-gradient1" x1="709.4" y1="742.1" x2="488.8" y2="1167.4" xlink:href="#linear-gradient"/>
    <linearGradient id="linear-gradient2" x1="725.9" y1="750.7" x2="505.3" y2="1176" xlink:href="#linear-gradient"/>
    <linearGradient id="linear-gradient3" x1="761.4" y1="769.1" x2="540.8" y2="1194.4" xlink:href="#linear-gradient"/>
    <linearGradient id="linear-gradient4" x1="889" y1="835.2" x2="668.4" y2="1260.6" xlink:href="#linear-gradient"/>
    <linearGradient id="linear-gradient5" x1="872.5" y1="826.7" x2="651.9" y2="1252" xlink:href="#linear-gradient"/>
    <linearGradient id="linear-gradient6" x1="856" y1="818.1" x2="635.4" y2="1243.4" xlink:href="#linear-gradient"/>
    <linearGradient id="linear-gradient7" x1="820.4" y1="799.7" x2="599.8" y2="1225" xlink:href="#linear-gradient"/>
  </defs>
  <!-- <rect x="-6.5" y="-4.8" width="3040.7" height="2009.7" fill="#10243f"/> -->
  <g>
    <g>
      <path d="M1045.8,1024.2l-28.2-6.9c-11.2-2.8-19.4-6.3-24.7-10.5-5.3-4.2-7.9-9.9-7.9-17.2s3.9-14.9,11.6-20.2c7.7-5.3,17.4-8,29-8s15.4,1.4,20.9,4.1c5.4,2.7,9.7,6.2,12.9,10.3,3.2,4.2,5.6,8.4,7.2,12.8l26.2-7.4c-4.5-13.5-12.2-24.4-22.9-32.6s-25.5-12.4-44.3-12.4-25.3,2.3-35.8,7c-10.5,4.7-18.8,11.2-24.8,19.4-6.1,8.2-9.1,17.7-9.1,28.4s4.1,24,12.2,32.7c8.1,8.7,20.9,15.1,38.2,19.2l31.6,7.4c9.6,2.2,16.6,5.6,21.3,10.1,4.6,4.5,6.9,10,6.9,16.6s-4,15.1-12,20.9c-8,5.8-18.8,8.7-32.4,8.7s-21.6-2.6-29-7.7c-7.4-5.1-12.4-12.8-15-23l-27.7,6.9c3.4,16.1,11.4,28.4,24.1,36.8,12.7,8.4,28.7,12.6,48.1,12.6s27.7-2.5,38.8-7.4c11.1-4.9,19.8-11.7,26-20.3,6.2-8.6,9.3-18.3,9.3-29.2s-4.2-24.1-12.5-32.6c-8.3-8.4-21-14.7-37.9-18.8Z" fill="#fff"/>
      <path d="M1179,971.3c8.5-5.9,18.5-8.8,29.8-8.8s23.1,3.4,30.7,10.1c7.6,6.7,12.5,14.4,14.8,23h29.2c-1.6-11.9-5.9-22.2-12.7-31.1-6.8-8.9-15.6-15.8-26.3-20.8-10.7-4.9-22.7-7.4-36.1-7.4s-32.1,4.2-44.9,12.5c-12.8,8.4-22.8,19.9-29.9,34.7-7.1,14.8-10.7,31.8-10.7,51.1s3.5,35.8,10.4,50.5c6.9,14.7,16.8,26.3,29.7,34.7,12.8,8.4,28.2,12.6,46,12.6s26.3-2.6,36.9-7.8c10.6-5.2,19.1-12.3,25.6-21.3,6.5-8.9,10.5-19,12.2-30.2h-29.2c-1.8,6.9-4.9,12.9-9.1,17.8-4.3,4.9-9.5,8.7-15.7,11.4-6.2,2.6-13.1,4-20.6,4-11.5,0-21.6-3-30.1-9-8.5-6-15.1-14.5-19.8-25.3-4.7-10.9-7-23.6-7-38.3s2.4-26.8,7.1-37.5c4.7-10.7,11.4-18.9,19.9-24.8Z" fill="#fff"/>
      <path d="M1440.6,944c-9.7-5.1-21-7.7-34-7.7s-26.8,2.9-35.8,8.7c-8.9,5.8-15.6,13.6-20.1,23.4h-2.5v-92.9h-29.2v253h29.2v-114.2c0-11,2.2-20.4,6.5-28.2,4.3-7.7,10.3-13.6,17.8-17.7,7.5-4,16.1-6.1,25.6-6.1,13.8,0,24.5,4.1,32.3,12.4,7.8,8.3,11.7,20,11.7,35v118.6h29.2v-120.6c0-16.3-2.7-29.8-8.1-40.3-5.4-10.6-13-18.5-22.7-23.6Z" fill="#fff"/>
      <path d="M1709.1,936.2c-13.6,0-25.2,2.9-35,8.7-9.7,5.8-17,13.6-21.9,23.4h-2c-4.7-10.1-11.2-18-19.6-23.7-8.4-5.6-18.8-8.5-31.3-8.5s-22.9,2.8-31.8,8.5c-8.8,5.6-15.2,13.5-19.1,23.7h-2.5v-29.7h-28.2v189.8h29.2v-118.6c0-9.3,2-17.5,6-24.7,4-7.1,9.3-12.7,15.8-16.7,6.5-4,13.6-6.1,21.2-6.1,11,0,20.1,3.3,27.1,9.9,7,6.6,10.5,15.3,10.5,26.1v130h29.7v-123.6c0-12.3,3.7-22.4,11-30.5,7.3-8,17.7-12,31-12s19.4,3,27.1,9c7.7,6,11.5,16,11.5,30v127h29.2v-127c0-22.3-5.4-38.8-16.2-49.4-10.8-10.6-24.7-15.9-41.6-15.9Z" fill="#fff"/>
      <rect x="1812.6" y="938.7" width="29.2" height="189.8" fill="#fff"/>
      <path d="M1827.4,867.5c-5.7,0-10.6,1.9-14.6,5.8-4.1,3.9-6.1,8.5-6.1,14s2,10.1,6.1,14,9,5.8,14.6,5.8,10.6-1.9,14.6-5.8,6.1-8.5,6.1-14-2-10.1-6.1-14c-4.1-3.9-9-5.8-14.6-5.8Z" fill="#fff"/>
      <path d="M1962.1,1102.2c-2.1.4-4.7.6-7.9.6s-8.3-.7-12.2-2c-3.8-1.4-7-4.1-9.4-8.2s-3.6-10.2-3.6-18.5v-110.7h40.5v-24.7h-40.5v-45.5h-29.2v45.5h-28.7v24.7h28.7v118.6c0,11,2.6,20.2,7.7,27.4,5.1,7.2,11.7,12.6,19.5,16.2,7.9,3.5,15.9,5.3,24.2,5.3s9.9-.4,13.5-1.2c3.5-.8,6.3-1.5,8.3-2.3l-5.9-26.2c-1.2.2-2.9.6-4.9.9Z" fill="#fff"/>
      <path d="M2128.5,957.2c-7.9-7.4-16.7-12.7-26.3-16-9.6-3.3-19.4-4.9-29.3-4.9-17.1,0-32.1,4.2-44.9,12.5-12.8,8.4-22.8,20-29.9,34.8-7.1,14.9-10.7,32-10.7,51.5s3.6,36.5,10.7,51.1c7.1,14.6,17.3,26,30.5,34.1,13.2,8.1,29,12.2,47.3,12.2s24.4-2,34.7-6c10.3-4,18.9-9.6,25.9-16.8,7-7.2,12-15.6,15-25.1l-28.2-7.9c-2.5,6.6-6,12.1-10.5,16.5-4.5,4.4-9.9,7.7-16.1,9.9-6.2,2.2-13.2,3.3-20.8,3.3-11.8,0-22.1-2.6-31-7.7-8.9-5.1-15.8-12.7-20.8-22.6-4.5-9-7-19.8-7.4-32.4h137.8v-12.4c0-17.7-2.3-32.6-7-44.7-4.7-12.1-11-21.8-18.9-29.2ZM2016.7,1018.3c.6-8.8,2.8-17.1,6.6-25,4.5-9.1,11-16.6,19.5-22.3,8.4-5.7,18.5-8.6,30.1-8.6s19.7,2.4,27.5,7.3c7.8,4.9,13.8,11.5,18,19.9,4.2,8.4,6.4,18,6.4,28.7h-108.1Z" fill="#fff"/>
      <path d="M2239.2,971.3c8.5-5.9,18.5-8.8,29.8-8.8s23.1,3.4,30.7,10.1c7.6,6.7,12.5,14.4,14.8,23h29.2c-1.6-11.9-5.9-22.2-12.7-31.1-6.8-8.9-15.6-15.8-26.3-20.8-10.7-4.9-22.7-7.4-36.1-7.4s-32.1,4.2-44.9,12.5c-12.8,8.4-22.8,19.9-29.9,34.7-7.1,14.8-10.7,31.8-10.7,51.1s3.5,35.8,10.4,50.5c6.9,14.7,16.8,26.3,29.7,34.7,12.9,8.4,28.2,12.6,46,12.6s26.3-2.6,36.9-7.8c10.6-5.2,19.1-12.3,25.6-21.3,6.5-8.9,10.5-19,12.2-30.2h-29.2c-1.8,6.9-4.9,12.9-9.1,17.8-4.3,4.9-9.5,8.7-15.7,11.4-6.2,2.6-13.1,4-20.6,4-11.5,0-21.6-3-30.1-9-8.5-6-15.1-14.5-19.8-25.3-4.7-10.9-7-23.6-7-38.3s2.4-26.8,7.1-37.5c4.7-10.7,11.4-18.9,19.9-24.8Z" fill="#fff"/>
      <path d="M2523.4,967.6c-5.4-10.6-13-18.5-22.7-23.6-9.7-5.1-21-7.7-34-7.7s-26.8,2.9-35.8,8.7c-8.9,5.8-15.6,13.6-20.1,23.4h-2.5v-92.9h-29.2v253h29.2v-114.2c0-11,2.2-20.4,6.5-28.2,4.3-7.7,10.3-13.6,17.8-17.7,7.5-4,16.1-6.1,25.6-6.1,13.8,0,24.5,4.1,32.3,12.4,7.8,8.3,11.7,20,11.7,35v118.6h29.2v-120.6c0-16.3-2.7-29.8-8.1-40.3Z" fill="#fff"/>
    </g>
    <g>
      <polygon points="691.4 926.9 691.4 917.3 556.3 917.3 528.7 889.6 496.2 922.1 528.7 954.5 556.3 926.9 691.4 926.9" fill="url(#linear-gradient)"/>
      <polygon points="604.2 874.9 739.3 874.9 739.3 865.3 604.2 865.3 576.6 837.6 544.1 870.1 576.6 902.5 604.2 874.9" fill="url(#linear-gradient1)"/>
      <polygon points="652.1 822.9 787.2 822.9 787.2 813.3 652.1 813.3 624.5 785.7 592 818.1 624.5 850.6 652.1 822.9" fill="url(#linear-gradient2)"/>
      <polygon points="604.2 978.8 706.1 978.8 733.7 1006.5 766.2 974 733.7 941.6 706.1 969.2 604.2 969.2 576.6 941.6 544.1 974 576.6 1006.5 604.2 978.8" fill="url(#linear-gradient3)"/>
      <polygon points="829.5 1045.5 801.9 1073.1 666.7 1073.1 666.7 1082.7 801.9 1082.7 829.5 1110.4 861.9 1077.9 829.5 1045.5" fill="url(#linear-gradient4)"/>
      <polygon points="754 1125.1 618.9 1125.1 618.9 1134.7 754 1134.7 781.6 1162.4 814.1 1129.9 781.6 1097.5 754 1125.1" fill="url(#linear-gradient5)"/>
      <polygon points="706.1 1177.1 571 1177.1 571 1186.7 706.1 1186.7 733.7 1214.3 766.2 1181.9 733.7 1149.4 706.1 1177.1" fill="url(#linear-gradient6)"/>
      <polygon points="754 1021.2 652.1 1021.2 624.5 993.5 592 1026 624.5 1058.4 652.1 1030.8 754 1030.8 781.6 1058.4 814.1 1026 781.6 993.5 754 1021.2" fill="url(#linear-gradient7)"/>
    </g>
  </g>
</svg>